# AST/ASF file generated using VICON BodyLanguage
# -----------------------------------------------
:version 1.10
:name VICON
:units
  mass 1.0
  length 0.45
  angle deg
:documentation
   .ast/.asf automatically generated from VICON data using
   VICON BodyBuilder and BodyLanguage model FoxedUp or BRILLIANT.MOD
:root
   order TX TY TZ RX RY RZ
   axis XYZ
   position 0 0 0  
   orientation 0 0 0 
:bonedata
  begin
     id 1 
     name lhipjoint
     direction 0.643272 -0.706573 0.294883 
     length 2.58915 
     axis 0 0 0  XYZ
  end
  begin
     id 2 
     name lfemur
     direction 0.34202 -0.939693 0  
     length 7.06802  
     axis 0 0 20  XYZ
    dof rx ry rz
    limits (-160.0 20.0)
           (-70.0 70.0)
           (-60.0 70.0)
  end
  begin
     id 3 
     name ltibia
     direction 0.34202 -0.939693 0   
     length 7.94147   
     axis 0 0 20   XYZ
    dof rx
    limits (-10.0 170.0)
  end
  begin
     id 4 
     name lfoot
     direction 0.0435058 -0.119531 0.991877   
     length 1.8399   
     axis -90 7.62852e-016 20   XYZ
    dof rx rz
    limits (-45.0 90.0)
           (-70.0 20.0)
  end
  begin
     id 5 
     name ltoes
     direction 1.53505e-011 -4.22157e-011 1   
     length 0.934412   
     axis -90 7.62852e-016 20   XYZ
    dof rx
    limits (-90.0 20.0)
  end
  begin
     id 6 
     name rhipjoint
     direction -0.636801 -0.711547 0.296959   
     length 2.57105  
     axis 0 0 0  XYZ 
  end
  begin
     id 7 
     name rfemur
     direction -0.34202 -0.939693 0   
     length 7.03285   
     axis 0 0 -20   XYZ
    dof rx ry rz
    limits (-160.0 20.0)
           (-70.0 70.0)
           (-70.0 60.0)
  end
  begin
     id 8 
     name rtibia
     direction -0.34202 -0.939693 0   
     length 7.99111   
     axis 0 0 -20   XYZ
    dof rx
    limits (-10.0 170.0)
 end
 begin
     id 9 
     name rfoot
     direction -0.0783088 -0.215152 0.973436   
     length 1.98785  
     axis -90 -7.62852e-016 -20   XYZ
    dof rx rz
    limits (-45.0 90.0)
           (-20.0 70.0)
  end
  begin
     id 10 
     name rtoes
     direction -1.53606e-011 -4.21943e-011 1   
     length 1.001   
     axis -90 -7.62852e-016 -20   XYZ
    dof rx
    limits (-90.0 20.0)
  end
  begin
     id 11 
     name lowerback
     direction 0.00141527 0.998403 -0.0564763   
     length 2.30486   
     axis 0 0 0   XYZ
    dof rx ry rz
    limits (-20.0 45.0)
           (-30.0 30.0)
           (-30.0 30.0)
  end
  begin
     id 12 
     name upperback
     direction 0.0125137 0.999915 0.00361315   
     length 2.30697   
     axis 0 0 0   XYZ
    dof rx ry rz
    limits (-20.0 45.0)
           (-30.0 30.0)
           (-30.0 30.0)
  end
  begin
     id 13 
     name thorax
     direction 0.0136417 0.999471 0.0295116   
     length 2.31005   
     axis 0 0 0   XYZ
    dof rx ry rz
    limits (-20.0 45.0)
           (-30.0 30.0)
           (-30.0 30.0)
  end
  begin
     id 14 
     name lowerneck
     direction 0.0766806 0.997047 0.00422047   
     length 1.68825   
     axis 0 0 0   XYZ
    dof rx ry rz
    limits (-20.0 45.0)
           (-30.0 30.0)
           (-30.0 30.0)
  end
  begin
     id 15 
     name upperneck
     direction -0.143512 0.985106 -0.0947088   
     length 1.69772   
     axis 0 0 0   XYZ
    dof rx ry rz
    limits (-20.0 45.0)
           (-30.0 30.0)
           (-30.0 30.0)
  end
  begin
     id 16
     name head
     direction -0.0539128 0.997849 -0.0372864  
     length 1.71187  
     axis 0 0 0   XYZ
    dof rx ry rz
    limits (-20.0 45.0)
           (-30.0 30.0)
           (-30.0 30.0)
  end
  begin
     id 17 
     name lclavicle
     direction 0.978251 0.207416 -0.00165765  
     length 3.35399  
     axis 0 0 0   XYZ
    dof ry rz
    limits (-20.0 10.0)
           (0.0 20.0)
  end
  begin
     id 18 
     name lhumerus
     direction 1 -4.48966e-011 -1.32191e-028   
     length 5.70706   
     axis 180 -30 -90   XYZ
    dof rx ry rz
    limits (-60.0 90.0)
           (-90.0 90.0)
           (-90.0 90.0)
  end
  begin
     id 19
     name lradius
     direction 1 -4.48976e-011 9.36106e-027   
     length 3.33243   
     axis 180 -30 -90   XYZ
    dof rx
    limits (-10.0 170.0)
  end
  begin
     id 20
     name lwrist
     direction 1 -4.48976e-011 1.1555e-026   
     length 1.66621   
     axis -5.7412e-015 90 90   XYZ
    dof ry
    limits (-180.0 0.0)
 end
  begin
     id 21 
     name lhand
     direction 1 -4.48939e-011 2.31113e-026   
     length 0.792687   
     axis -1.47463e-014 90 90   XYZ
    dof rx rz
    limits (-90.0 90.0)
           (-45.0 45.0)
  end
  begin
     id 22 
     name lfingers
     direction 1 -4.48866e-011 4.62274e-026   
     length 0.639085   
     axis -2.94925e-014 90 90   XYZ
    dof rx
    limits (0.0 90.0)
  end
  begin
     id 23
     name lthumb
     direction 0.707107 -6.34847e-011 0.707107   
     length 0.917601   
     axis -90 45 -6.68868e-015   XYZ
    dof rx rz
    limits (-45.0 45.0)
           (-45.0 45.0)
  end
  begin
     id 24 
     name rclavicle
     direction -0.981813 0.185514 0.0403428   
     length 3.47271  
     axis 0 0 0   XYZ 
    dof ry rz
    limits (-10.0 20.0)
           (-20.0 0.0)
  end
  begin
     id 25 
     name rhumerus
     direction -1 -4.48972e-011 -6.58544e-029  
     length 5.88176   
     axis 180 30 90   XYZ
    dof rx ry rz
    limits (-90.0 60.0)
           (-90.0 90.0)
           (-90.0 90.0)
  end
  begin
     id 26 
     name rradius
     direction -1 -4.48964e-011 8.36306e-027   
     length 3.28156   
     axis 180 30 90   XYZ
    dof rx
    limits (-10.0 170.0)
  end
  begin
     id 27 
     name rwrist
     direction -1 -4.48903e-011 1.15562e-026   
     length 1.64078   
     axis -5.7412e-015 -90 -90   XYZ
    dof ry
    limits (-180.0 0.0)
  end
  begin
     id 28
     name rhand
     direction -1 -4.49055e-011 2.31074e-026   
     length 0.863125   
     axis -1.47463e-014 -90 -90   XYZ
    dof rx rz
    limits (-90.0 90.0)
           (-45.0 45.0)
  end
  begin
     id 29
     name rfingers
     direction -1 -4.48994e-011 4.62188e-026   
     length 0.695873   
     axis -2.94925e-014 -90 -90   XYZ
    dof rx
    limits (0.0 90.0)
  end
  begin
     id 30
     name rthumb
     direction -0.707107 -6.35058e-011 0.707107   
     length 0.999139   
     axis -90 -45 6.68868e-015   XYZ
    dof rx rz
    limits (-45.0 45.0)
           (-45.0 45.0)
  end
:hierarchy
  begin
    root lhipjoint rhipjoint lowerback
    lhipjoint lfemur
    lfemur ltibia
    ltibia lfoot
    lfoot ltoes
    rhipjoint rfemur
    rfemur rtibia
    rtibia rfoot
    rfoot rtoes
    lowerback upperback
    upperback thorax
    thorax lowerneck lclavicle rclavicle
    lowerneck upperneck
    upperneck head
    lclavicle lhumerus
    lhumerus lradius
    lradius lwrist
    lwrist lhand lthumb
    lhand lfingers
    rclavicle rhumerus
    rhumerus rradius
    rradius rwrist
    rwrist rhand rthumb
    rhand rfingers
  end

#!OML:ASF \\Waltz\H\Terrain\Patient Classification 1\Animal2\Wednesday\Animal2.ASF
:FULLY-SPECIFIED
:DEGREES
1636
root -1.45338 17.7669 8.18007 0.634198 1.63586 -2.48729
lowerback 6.16252 -4.00667 0.104019
upperback -3.36099 -5.29458 0.963642
thorax -6.88212 -2.58462 1.5824
lowerneck 8.76393 8.03681 16.8868
upperneck -11.1908 11.0999 -19.3007
head -2.56325 5.96592 -9.18594
rclavicle 2.56246e-014 -1.33186e-014
rhumerus 40.7923 46.0192 -28.6096
rradius 89.9713
rwrist -27.3042
rhand -19.8994 16.8728
rfingers 7.12502
rthumb 6.43695 -13.0094
lclavicle 2.56246e-014 -1.33186e-014
lhumerus 31.513 11.4191 18.1438
lradius 64.0282
lwrist -3.094
lhand -53.0308 23.8553
lfingers 7.12502
lthumb -25.4952 52.1697
rfemur -13.8009 3.796 23.232
rtibia 37.7023
rfoot -15.2007 6.79381
rtoes 24.9183
lfemur -20.0832 10.9736 -15.6972
ltibia 56.1247
lfoot -6.25277 -8.15073
ltoes -20.7829
1637
root -1.47609 17.7659 8.206 0.710178 1.67109 -3.856
lowerback 6.10057 -4.03739 0.935298
upperback -3.33152 -5.22795 1.48569
thorax -6.84336 -2.57752 1.65267
lowerneck 8.83397 7.91616 17.1277
upperneck -11.3001 10.9555 -19.4428
head -2.60926 5.89564 -9.28696
rclavicle -1.2424e-015 8.74653e-015
rhumerus 40.9627 45.8409 -28.6267
rradius 90.0746
rwrist -27.2289
rhand -20.23 16.9006
rfingers 7.12502
rthumb 6.11775 -12.9911
lclavicle -1.2424e-015 8.74653e-015
lhumerus 31.4198 11.4145 17.8288
lradius 64.0585
lwrist -3.07
lhand -52.7998 23.5573
lfingers 7.12502
lthumb -25.274 51.9031
rfemur -13.4188 2.56284 24.6424
rtibia 36.8012
rfoot -14.5523 8.1826
rtoes 25.9005
lfemur -21.1566 10.7691 -14.038
ltibia 57.401
lfoot -7.12235 -7.67052
ltoes -22.3732
1638
root -1.50161 17.7711 8.2325 0.680932 1.64315 -4.78257
lowerback 6.22572 -4.00946 1.30647
upperback -3.33641 -5.13065 1.8573
thorax -6.92154 -2.5364 1.83391
lowerneck 8.84373 7.75658 17.501
upperneck -11.1658 10.7891 -19.6065
head -2.5707 5.80914 -9.40215
rclavicle 5.08019e-014 5.46658e-015
rhumerus 41.0351 45.6786 -28.6833
rradius 90.1263
rwrist -27.3716
rhand -20.2511 17.1018
rfingers 7.12502
rthumb 6.09742 -12.7905
lclavicle 5.08019e-014 5.46658e-015
lhumerus 31.29 11.3219 17.5017
lradius 64.2885
lwrist -2.99201
lhand -52.8062 23.1846
lfingers 7.12502
lthumb -25.2801 51.5295
rfemur -12.95 1.36624 25.6179
rtibia 35.9074
rfoot -13.8933 9.33169
rtoes 25.9897
lfemur -21.9359 10.4581 -12.8233
ltibia 58.322
lfoot -8.08959 -7.02388
ltoes -21.1414
1639
root -1.52393 17.7816 8.26599 0.596648 1.54008 -5.52913
lowerback 6.39751 -3.86576 1.45972
upperback -3.38651 -4.89092 2.29465
thorax -7.05267 -2.41322 2.19308
lowerneck 8.8204 7.56846 17.568
upperneck -10.9473 10.5438 -19.7844
head -2.53529 5.69493 -9.46907
rclavicle 4.87644e-015 6.31141e-015
rhumerus 40.8652 45.4991 -28.482
rradius 90.2385
rwrist -27.506
rhand -19.8346 17.1529
rfingers 7.12502
rthumb 6.49954 -12.7273
lclavicle 4.87644e-015 6.31141e-015
lhumerus 31.2865 11.1171 17.6484
lradius 64.4884
lwrist -2.93828
lhand -52.8255 22.4199
lfingers 7.12502
lthumb -25.2985 50.7623
rfemur -12.383 0.124232 26.4122
rtibia 35.0467
rfoot -13.1827 10.3897
rtoes 25.3478
lfemur -22.4305 9.89991 -11.7931
ltibia 58.9036
lfoot -9.13921 -6.54811
ltoes -18.0221
1640
root -1.54078 17.7905 8.29879 0.421779 1.46646 -6.31398
lowerback 6.70816 -3.76323 1.6244
upperback -3.44726 -4.69216 2.82914
thorax -7.27049 -2.30693 2.66529
lowerneck 9.0272 7.34157 17.4128
upperneck -11.0138 10.2136 -20.0437
head -2.64517 5.56013 -9.55755
rclavicle -2.53202e-014 4.18317e-014
rhumerus 40.6565 45.4305 -28.2799
rradius 90.25
rwrist -27.2535
rhand -19.2232 17.4728
rfingers 7.12502
rthumb 7.08968 -12.3885
lclavicle -2.53202e-014 4.18317e-014
lhumerus 31.2053 10.9595 18.0259
lradius 64.6285
lwrist -3.00432
lhand -53.1496 21.9439
lfingers 7.12502
lthumb -25.609 50.242
rfemur -11.7194 -1.15855 27.2421
rtibia 34.263
rfoot -12.0735 11.4239
rtoes 27.9266
lfemur -22.706 9.08307 -10.726
ltibia 59.2213
lfoot -10.0389 -6.13941
ltoes -14.7995
